<svg width="64" xmlns="http://www.w3.org/2000/svg" height="64" viewBox="0 0 64 64" xmlns:xlink="http://www.w3.org/1999/xlink" enable-background="new 0 0 64 64">
<g fill="#505050">
<path d="M20.333,32L27,38.67L8.667,57L2,50.335L20.333,32z"/>
<path d="m34,14c6.617,0 12,5.383 12,12s-5.383,12-12,12-12-5.383-12-12 5.383-12 12-12m0-6c-9.941,0-18,8.06-18,18 0,9.941 8.059,18 18,18 9.941,0 18-8.059 18-18 0-9.94-8.059-18-18-18z"/>
</g>
<g fill="#fff">
<path d="M40,24h12v30H40V24z"/>
<path d="M30,34h30v13H30V34z"/>
</g>
<g fill="#206d42">
<path d="M42,26h8v28h-8V26z"/>
<path d="M32,36h28v8H32V36z"/>
</g>
</svg>
