<?xml version="1.0" encoding="utf-8"?>
<!-- Generator: Adobe Illustrator 15.0.0, SVG Export Plug-In . SVG Version: 6.00 Build 0)  -->
<!DOCTYPE svg PUBLIC "-//W3C//DTD SVG 1.1//EN" "http://www.w3.org/Graphics/SVG/1.1/DTD/svg11.dtd">
<svg version="1.1" id="Слой_1" xmlns="http://www.w3.org/2000/svg" xmlns:xlink="http://www.w3.org/1999/xlink" x="0px" y="0px"
	 width="64px" height="64px" viewBox="0 0 64 64" enable-background="new 0 0 64 64" xml:space="preserve">
<g>
	<g enable-background="new    ">
		<path fill="#1F6D42" d="M13.5,20.894L12.33,25H8.5l5-16h4.879L23.5,25h-4.024l-1.268-4.106H13.5z M17.671,18.186l-1.023-3.394
			c-0.292-0.95-0.585-2.137-0.83-3.087h-0.049c-0.244,0.949-0.487,2.161-0.756,3.087l-0.976,3.394H17.671z"/>
	</g>
	<g enable-background="new    ">
		<path fill="#1F6D42" d="M11,37.847c0.96-0.173,2.879-0.347,4.728-0.347c2.232,0,3.599,0.222,4.799,0.941
			c1.128,0.619,1.92,1.759,1.92,3.296c0,1.462-0.841,2.824-2.664,3.544v0.049C21.631,45.826,23,47.289,23,49.42
			c0,1.537-0.673,2.727-1.68,3.568c-1.176,0.967-3.144,1.512-6.36,1.512c-1.801,0-3.144-0.125-3.96-0.248V37.847z M14.623,44.239
			h1.201c1.944,0,2.953-0.816,2.953-2.057c0-1.265-0.937-1.932-2.593-1.932c-0.816,0-1.272,0.049-1.561,0.099V44.239z M14.623,51.65
			c0.361,0.049,0.792,0.049,1.417,0.049c1.656,0,3.12-0.668,3.12-2.429c0-1.659-1.465-2.329-3.289-2.329h-1.248V51.65z"/>
	</g>
</g>
<g>
	<path fill="#505050" d="M26,13h30v2H26V13z"/>
	<path fill="#505050" d="M26,20h30v2H26V20z"/>
	<path fill="#505050" d="M26,42h30v2H26V42z"/>
	<path fill="#505050" d="M26,49h30v2H26V49z"/>
</g>
</svg>
