<svg width="64" xmlns="http://www.w3.org/2000/svg" height="64" viewBox="0 0 64 64" xmlns:xlink="http://www.w3.org/1999/xlink" enable-background="new 0 0 64 64">
<g fill="#505050">
<path d="M20.333,32L27,38.67L8.667,57L2,50.335L20.333,32z"/>
<path d="m34,14c6.617,0 12,5.383 12,12s-5.383,12-12,12-12-5.383-12-12 5.383-12 12-12m0-6c-9.941,0-18,8.06-18,18 0,9.941 8.059,18 18,18 9.941,0 18-8.059 18-18 0-9.94-8.059-18-18-18z"/>
</g>
<g fill="#fff">
<path d="m29,49.5l27-27 8,8-27,27-8-8z"/>
<path d="m37.5,23l26.5,26.5-8,8-26.5-26.5 8-8z"/>
</g>
<g fill="#b83d19">
<path d="M37.167,54L32.5,49.333L55.833,26l4.667,4.667L37.167,54z"/>
<path d="M60.5,49.333L55.833,54L32.5,30.667L37.167,26L60.5,49.333z"/>
</g>
</svg>
