<svg width="64" xmlns="http://www.w3.org/2000/svg" height="64" viewBox="0 0 64 64" xmlns:xlink="http://www.w3.org/1999/xlink" enable-background="new 0 0 64 64">
<defs>
<clipPath id="SVGID_2_COPY">
<use xlink:href="#SVGID_1_COPY"/>
</clipPath>
<path id="SVGID_1_COPY" d="m21,13 0,35-13,0 0-40 30,0 0,5z"/>
</defs>
<g clip-path="url(#SVGID_2_COPY)">
<g>
<path fill="#fff" d="M9,47 9,9 29.586,9 39,18.414 39,47z"/>
<path fill="#505050" d="M29.172,10L38,18.829V46H10V10H29.172 M30,8H8v40h32V18L30,8L30,8z"/>
</g>
<g fill="#505050">
<path d="m13,18h12v2h-12z"/>
<path d="m13,25h22v2h-22z"/>
<path d="m13,32h22v2h-22z"/>
<path d="m13,39h22v2h-22z"/>
</g>
<g>
<path fill="#fff" d="M29,19 29,9 29.586,9 39,18.414 39,19z"/>
<path fill="#505050" d="M30,10.829L37.172,18H30V10.829 M30,8h-2v12h12v-2L30,8L30,8z"/>
</g>
</g>
<path fill="#fff" d="M25,55 25,17 45.586,17 55,26.414 55,55z"/>
<g fill="#505050">
<path d="M45.172,18L54,26.829V54H26V18H45.172 M46,16H24v40h32V26L46,16L46,16z"/>
<path d="m29,26h12v2h-12z"/>
<path d="m29,33h22v2h-22z"/>
<path d="m29,40h22v2h-22z"/>
<path d="m29,47h22v2h-22z"/>
</g>
<path fill="#fff" d="m45,27 0-10 .586,0 9.414,9.414 0,.586z"/>
<path fill="#505050" d="M46,18.829L53.172,26H46V18.829 M46,16h-2v12h12v-2L46,16L46,16z"/>
</svg>
