<svg width="64" xmlns="http://www.w3.org/2000/svg" height="64" viewBox="0 0 64 64" xmlns:xlink="http://www.w3.org/1999/xlink" enable-background="new 0 0 64 64">
<g fill="#505050">
<path d="m11,6.12l.011,11.077c1.989,2.213 26.448,27.127 26.448,27.127l2.828-3.465c-1.972-2.823-6.407-4.227-5.971-6.728 .438-2.497-.048-3.749-1.576-5.815-1.094-2.062-21.74-22.196-21.74-22.196zm18.636,25.048c.762-.756 1.997-.767 2.758-.012 .761,.754 .761,1.992 0,2.746-.761,.756-1.996,.743-2.758-.012-.762-.755-.762-1.968 0-2.722z"/>
<path stroke="#505050" stroke-width=".549" d="m22.235,41.367l4.866-5.502 3.487,3.667c0,0-4.056,4.893-4.604,6.955 .214-.212-3.749-5.12-3.749-5.12z"/>
<path d="m43.652,16.694c-3.438,3.865-9.039,8.921-8.601,11.42 .751,4.107 1.062,4.45 1.247,6.559 5.837-6.998 11.362-12.012 17.702-18.041v-10.632c0,0-3.903,4.251-10.348,10.694z"/>
</g>
<g fill="#0072c6">
<path d="m52,49c0,6.101-4.104,10-8.002,10-4.419,0-7.998-4.478-7.998-10s3.579-10 7.998-10 8.002,4.478 8.002,10zm-8.002-6c-2.484,0-4.498,2.687-4.498,6.002 0,3.312 2.014,5.998 4.498,5.998s4.502-2.687 4.502-5.998c0-3.315-2.018-6.002-4.502-6.002z"/>
<path d="m28,49.001c0,5.522-3.582,9.999-8,9.999-4.417,0-8-4.477-8-9.999 0-5.523 3.582-10.001 8-10.001 4.418,0 8,4.478 8,10.001zm-8-6.001c-2.485,0-4.5,2.688-4.5,6.003 0,3.311 2.015,5.997 4.5,5.997 2.486,0 4.5-2.686 4.5-5.997 0-3.315-2.014-6.003-4.5-6.003z"/>
</g>
</svg>
