<?xml version="1.0" encoding="UTF-8" standalone="no"?>
<!-- Generator: Adobe Illustrator 15.0.0, SVG Export Plug-In . SVG Version: 6.00 Build 0)  -->

<svg
   xmlns:dc="http://purl.org/dc/elements/1.1/"
   xmlns:cc="http://creativecommons.org/ns#"
   xmlns:rdf="http://www.w3.org/1999/02/22-rdf-syntax-ns#"
   xmlns:svg="http://www.w3.org/2000/svg"
   xmlns="http://www.w3.org/2000/svg"
   xmlns:sodipodi="http://sodipodi.sourceforge.net/DTD/sodipodi-0.dtd"
   xmlns:inkscape="http://www.inkscape.org/namespaces/inkscape"
   version="1.1"
   id="Layer_2"
   x="0px"
   y="0px"
   width="686px"
   height="123px"
   viewBox="0 0 686 123"
   enable-background="new 0 0 686 123"
   xml:space="preserve"
   inkscape:version="0.48.4 r9939"
   sodipodi:docname="aras-innovator-old.svg"><metadata
   id="metadata41"><rdf:RDF><cc:Work
       rdf:about=""><dc:format>image/svg+xml</dc:format><dc:type
         rdf:resource="http://purl.org/dc/dcmitype/StillImage" /><dc:title></dc:title></cc:Work></rdf:RDF></metadata><defs
   id="defs39" /><sodipodi:namedview
   pagecolor="#ffffff"
   bordercolor="#666666"
   borderopacity="1"
   objecttolerance="10"
   gridtolerance="10"
   guidetolerance="10"
   inkscape:pageopacity="0"
   inkscape:pageshadow="2"
   inkscape:window-width="1280"
   inkscape:window-height="1002"
   id="namedview37"
   showgrid="false"
   inkscape:zoom="0.83381924"
   inkscape:cx="369.21311"
   inkscape:cy="82.413728"
   inkscape:window-x="-8"
   inkscape:window-y="-8"
   inkscape:window-maximized="1"
   inkscape:current-layer="Layer_2" />



<path
   d="m 660.355,59.836465 c 6.574,0 11.896,5.324 11.896,11.896 0,6.57 -5.321,11.892 -11.896,11.892 -6.571,0 -11.892,-5.321 -11.892,-11.892 0,-6.572 5.32,-11.896 11.892,-11.896 m 8.976,11.896 c 0,-5.161 -4.006,-9.33 -8.977,-9.33 -4.968,0 -8.976,4.169 -8.976,9.33 0,5.16 4.008,9.328 8.976,9.328 4.971,0 8.977,-4.168 8.977,-9.328 m -9.713,1.058 h -2.02 v 5.736 h -2.374 v -13.59 h 5.294 c 3.364,0 5.096,1.152 5.096,3.91 0,2.468 -1.571,3.493 -3.495,3.847 l 3.719,5.833 h -2.757 l -3.463,-5.736 z m 0.416,-1.992 c 1.698,0 3.206,-0.159 3.206,-2.05 0,-1.57 -1.667,-1.826 -3.014,-1.826 h -2.628 v 3.875 h 2.436 z"
   id="path3027"
   inkscape:connector-curvature="0"
   style="fill:#807f81" /><g
   id="g3029"
   transform="translate(145.298,-242.10253)"><path
     d="m -128.775,271.149 c 0.482,-2.5 1.264,-4.529 2.342,-6.088 1.078,-1.559 2.672,-2.82 4.785,-3.785 2.023,-0.922 4.555,-1.568 7.59,-1.941 3.035,-0.373 6.754,-0.561 11.154,-0.561 4.223,0 7.82,0.254 10.791,0.758 2.969,0.506 5.389,1.33 7.26,2.473 1.869,1.143 3.244,2.637 4.125,4.48 0.879,1.846 1.32,4.109 1.32,6.789 v 17.398 c 0,1.406 0.152,2.539 0.461,3.395 0.309,0.857 0.66,1.594 1.057,2.207 h -16.895 c -0.354,-1.055 -0.553,-2.244 -0.596,-3.564 -1.848,1.717 -4.225,2.99 -7.127,3.82 -2.904,0.828 -6.557,1.244 -10.957,1.244 -2.771,0 -5.268,-0.199 -7.49,-0.592 -2.223,-0.396 -4.125,-1.076 -5.709,-2.043 -1.584,-0.965 -2.795,-2.217 -3.631,-3.754 -0.836,-1.535 -1.254,-3.467 -1.254,-5.795 0,-1.625 0.307,-3.105 0.924,-4.445 0.617,-1.34 1.596,-2.502 2.938,-3.49 1.342,-0.988 3.092,-1.768 5.248,-2.338 2.156,-0.57 4.752,-0.922 7.787,-1.055 l 13.926,-0.658 c 1.672,-0.088 2.826,-0.352 3.465,-0.791 0.637,-0.438 0.957,-1.162 0.957,-2.174 0,-1.184 -0.684,-2.063 -2.047,-2.633 -1.363,-0.57 -3.234,-0.857 -5.609,-0.857 -0.924,0 -1.848,0.043 -2.771,0.129 -0.923,0.086 -1.76,0.281 -2.508,0.582 -0.748,0.301 -1.396,0.709 -1.947,1.225 -0.551,0.516 -0.912,1.205 -1.088,2.064 h -16.501 z m 32.867,8.701 c -1.408,0.309 -3.246,0.572 -5.512,0.791 -2.266,0.221 -4.873,0.463 -7.82,0.727 -1.541,0.133 -2.674,0.473 -3.4,1.023 -0.726,0.55 -1.088,1.396 -1.088,2.541 0,1.277 0.494,2.277 1.484,3.004 0.99,0.727 2.541,1.088 4.654,1.088 1.363,0 2.748,-0.098 4.156,-0.297 1.408,-0.197 2.662,-0.582 3.764,-1.154 1.1,-0.572 2.002,-1.354 2.705,-2.344 0.703,-0.988 1.057,-2.254 1.057,-3.795 v -1.584 z"
     id="path3031"
     inkscape:connector-curvature="0" /><path
     d="m -46.539,260.149 h 15.971 v 6.93 h 0.133 c 2.156,-2.816 4.531,-4.842 7.127,-6.076 2.596,-1.234 5.346,-1.854 8.25,-1.854 1.805,0 3.607,0.125 5.412,0.375 v 14.82 c -1.453,-0.352 -2.828,-0.658 -4.125,-0.924 -1.299,-0.264 -2.674,-0.396 -4.125,-0.396 -1.453,0 -2.904,0.145 -4.355,0.43 -1.453,0.287 -2.762,0.793 -3.928,1.52 -1.166,0.727 -2.102,1.719 -2.805,2.973 -0.703,1.254 -1.055,2.85 -1.055,4.787 v 13.541 h -16.5 v -36.126 z"
     id="path3033"
     inkscape:connector-curvature="0" /><path
     d="m 20.384,271.149 c 0.482,-2.5 1.264,-4.529 2.342,-6.088 1.078,-1.559 2.672,-2.82 4.785,-3.785 2.023,-0.922 4.555,-1.568 7.59,-1.941 3.035,-0.373 6.754,-0.561 11.154,-0.561 4.223,0 7.82,0.254 10.791,0.758 2.969,0.506 5.389,1.33 7.26,2.473 1.869,1.143 3.244,2.637 4.125,4.48 0.879,1.846 1.32,4.109 1.32,6.789 v 17.398 c 0,1.406 0.152,2.539 0.461,3.395 0.309,0.857 0.66,1.594 1.057,2.207 H 54.374 c -0.354,-1.055 -0.553,-2.244 -0.596,-3.564 -1.848,1.717 -4.225,2.99 -7.127,3.82 -2.904,0.828 -6.557,1.244 -10.957,1.244 -2.771,0 -5.268,-0.199 -7.49,-0.592 -2.223,-0.396 -4.125,-1.076 -5.709,-2.043 -1.584,-0.965 -2.795,-2.217 -3.631,-3.754 -0.836,-1.535 -1.254,-3.467 -1.254,-5.795 0,-1.625 0.307,-3.105 0.924,-4.445 0.617,-1.34 1.596,-2.502 2.938,-3.49 1.342,-0.988 3.092,-1.768 5.248,-2.338 2.156,-0.57 4.752,-0.922 7.787,-1.055 l 13.926,-0.658 c 1.672,-0.088 2.826,-0.352 3.465,-0.791 0.637,-0.438 0.957,-1.162 0.957,-2.174 0,-1.184 -0.684,-2.063 -2.047,-2.633 -1.363,-0.57 -3.234,-0.857 -5.609,-0.857 -0.924,0 -1.848,0.043 -2.771,0.129 -0.923,0.086 -1.76,0.281 -2.508,0.582 -0.748,0.301 -1.396,0.709 -1.947,1.225 -0.551,0.516 -0.912,1.205 -1.088,2.064 H 20.384 z m 32.867,8.701 c -1.408,0.309 -3.246,0.572 -5.512,0.791 -2.266,0.221 -4.873,0.463 -7.82,0.727 -1.541,0.133 -2.674,0.473 -3.4,1.023 -0.726,0.55 -1.088,1.396 -1.088,2.541 0,1.277 0.494,2.277 1.484,3.004 0.99,0.727 2.541,1.088 4.654,1.088 1.363,0 2.748,-0.098 4.156,-0.297 1.408,-0.197 2.662,-0.582 3.764,-1.154 1.1,-0.572 2.002,-1.354 2.705,-2.344 0.703,-0.988 1.057,-2.254 1.057,-3.795 v -1.584 z"
     id="path3035"
     inkscape:connector-curvature="0" /><path
     d="m 113.508,281.989 c -2.377,-0.264 -4.357,-0.693 -5.941,-1.287 -1.584,-0.594 -2.85,-1.352 -3.795,-2.275 -0.945,-0.922 -1.617,-2.01 -2.012,-3.264 -0.396,-1.252 -0.594,-2.67 -0.594,-4.254 0,-4.264 1.969,-7.352 5.906,-9.266 3.938,-1.912 9.977,-2.869 18.117,-2.869 2.816,0 5.621,0.166 8.416,0.494 2.793,0.33 5.324,0.934 7.59,1.813 2.266,0.879 4.123,2.119 5.576,3.721 1.453,1.602 2.223,3.676 2.311,6.223 h -18.611 c 0,-1.041 -0.418,-1.779 -1.254,-2.213 -0.484,-0.26 -1.113,-0.477 -1.883,-0.65 -0.77,-0.173 -1.771,-0.262 -3.002,-0.262 -1.232,0 -2.234,0.066 -3.004,0.199 -0.77,0.133 -1.363,0.309 -1.781,0.527 -0.418,0.218 -0.705,0.482 -0.857,0.791 -0.154,0.309 -0.23,0.637 -0.23,0.988 0,0.484 0.285,0.936 0.857,1.354 0.57,0.418 1.76,0.713 3.564,0.889 l 15.707,1.385 c 4.443,0.396 7.6,1.539 9.471,3.43 1.869,1.891 2.805,4.375 2.805,7.453 0,4.66 -2.068,7.969 -6.203,9.926 -4.137,1.955 -10.561,2.934 -19.271,2.934 -4.313,0 -8.021,-0.23 -11.123,-0.689 -3.102,-0.463 -5.664,-1.195 -7.688,-2.203 -2.024,-1.008 -3.553,-2.313 -4.588,-3.912 -1.035,-1.599 -1.617,-3.539 -1.748,-5.82 h 19.404 c 0.176,1.34 0.857,2.291 2.045,2.852 0.615,0.26 1.318,0.434 2.111,0.52 0.793,0.086 1.65,0.129 2.576,0.129 2.111,0 3.553,-0.252 4.322,-0.758 0.769,-0.506 1.154,-1.176 1.154,-2.012 0,-0.527 -0.154,-1.01 -0.463,-1.451 -0.309,-0.439 -0.902,-0.703 -1.781,-0.791 l -16.103,-1.652 z"
     id="path3037"
     inkscape:connector-curvature="0" /></g><g
   id="g3039"
   transform="translate(145.298,-242.10253)"><g
     id="g3041"><path
       d="m -73.104,287.667 h 19.176 v 62.085 h -19.176 v -62.085 z"
       id="path3043"
       inkscape:connector-curvature="0"
       style="fill:#cc2036" /><path
       d="m -39.581,301.252 h 21.896 l 19.447,26.875 h 0.205 v -26.875 h 18.359 v 48.5 H -0.685 l -20.4,-27.199 h -0.135 v 27.199 h -18.361 v -48.5 z"
       id="path3045"
       inkscape:connector-curvature="0"
       style="fill:#cc2036" /><path
       d="m 34.471,301.252 h 21.896 l 19.447,26.875 h 0.205 v -26.875 h 18.359 v 48.5 H 73.367 l -20.4,-27.199 h -0.135 v 27.199 H 34.471 v -48.5 z"
       id="path3047"
       inkscape:connector-curvature="0"
       style="fill:#cc2036" /><path
       d="m 105.938,325.502 c 0,-4.174 0.555,-7.725 1.666,-10.65 1.109,-2.926 2.561,-5.354 4.352,-7.283 1.791,-1.929 3.854,-3.438 6.189,-4.527 2.334,-1.088 4.736,-1.893 7.207,-2.416 2.471,-0.521 4.896,-0.84 7.275,-0.953 2.379,-0.113 4.545,-0.17 6.496,-0.17 1.949,0 4.113,0.057 6.492,0.17 2.379,0.113 4.805,0.432 7.275,0.953 2.471,0.523 4.873,1.328 7.209,2.416 2.334,1.09 4.396,2.598 6.188,4.527 1.792,1.929 3.242,4.357 4.354,7.283 1.109,2.926 1.666,6.477 1.666,10.65 0,4.176 -0.557,7.727 -1.666,10.652 -1.111,2.926 -2.563,5.354 -4.354,7.283 -1.791,1.929 -3.854,3.438 -6.188,4.525 -2.336,1.09 -4.738,1.893 -7.209,2.416 -2.471,0.521 -4.896,0.84 -7.275,0.953 -2.379,0.113 -4.543,0.17 -6.492,0.17 -1.951,0 -4.117,-0.057 -6.496,-0.17 -2.379,-0.113 -4.805,-0.432 -7.275,-0.953 -2.471,-0.523 -4.873,-1.326 -7.207,-2.416 -2.336,-1.088 -4.398,-2.596 -6.189,-4.525 -1.791,-1.929 -3.242,-4.346 -4.352,-7.25 -1.111,-2.902 -1.666,-6.464 -1.666,-10.685 z m 20.401,0 c 0,2.451 0.293,4.551 0.883,6.297 0.59,1.748 1.439,3.178 2.551,4.289 1.109,1.111 2.447,1.916 4.012,2.416 1.565,0.5 3.344,0.748 5.34,0.748 1.949,0 3.717,-0.248 5.303,-0.748 1.586,-0.5 2.936,-1.305 4.047,-2.416 1.109,-1.111 1.959,-2.541 2.549,-4.289 0.59,-1.746 0.885,-3.846 0.885,-6.297 0,-2.449 -0.295,-4.549 -0.885,-6.297 -0.59,-1.746 -1.439,-3.176 -2.549,-4.287 -1.111,-1.111 -2.461,-1.916 -4.047,-2.416 -1.586,-0.5 -3.354,-0.75 -5.303,-0.75 -1.996,0 -3.775,0.25 -5.34,0.75 -1.565,0.5 -2.902,1.305 -4.012,2.416 -1.111,1.111 -1.961,2.541 -2.551,4.287 -0.59,1.748 -0.883,3.848 -0.883,6.297 z"
       id="path3049"
       inkscape:connector-curvature="0"
       style="fill:#cc2036" /><path
       d="m 176.319,301.252 h 21.08 l 10.676,31.125 h 0.135 l 10.678,-31.125 h 21.08 l -21.762,48.5 h -20.127 l -21.76,-48.5 z"
       id="path3051"
       inkscape:connector-curvature="0"
       style="fill:#cc2036" /><path
       d="m 256.558,301.252 h 23.527 l 20.674,48.5 h -20.4 l -2.041,-5.5 h -19.992 l -2.039,5.5 h -20.4 l 20.671,-48.5 z m 11.832,14.67 h -0.137 l -5.711,16.455 h 11.561 l -5.713,-16.455 z"
       id="path3053"
       inkscape:connector-curvature="0"
       style="fill:#cc2036" /><path
       d="m 317.01,313.502 h -17.748 v -12.25 h 54.672 v 12.25 h -17.748 v 36.25 H 317.01 v -36.25 z"
       id="path3055"
       inkscape:connector-curvature="0"
       style="fill:#cc2036" /><path
       d="m 360.528,325.502 c 0,-4.174 0.555,-7.725 1.666,-10.65 1.109,-2.926 2.561,-5.354 4.352,-7.283 1.791,-1.929 3.854,-3.438 6.189,-4.527 2.334,-1.088 4.736,-1.893 7.207,-2.416 2.471,-0.521 4.896,-0.84 7.275,-0.953 2.379,-0.113 4.545,-0.17 6.496,-0.17 1.949,0 4.113,0.057 6.492,0.17 2.379,0.113 4.805,0.432 7.275,0.953 2.471,0.523 4.873,1.328 7.209,2.416 2.334,1.09 4.396,2.598 6.188,4.527 1.792,1.929 3.242,4.357 4.354,7.283 1.109,2.926 1.666,6.477 1.666,10.65 0,4.176 -0.557,7.727 -1.666,10.652 -1.111,2.926 -2.563,5.354 -4.354,7.283 -1.791,1.929 -3.854,3.438 -6.188,4.525 -2.336,1.09 -4.738,1.893 -7.209,2.416 -2.471,0.521 -4.896,0.84 -7.275,0.953 -2.379,0.113 -4.543,0.17 -6.492,0.17 -1.951,0 -4.117,-0.057 -6.496,-0.17 -2.379,-0.113 -4.805,-0.432 -7.275,-0.953 -2.471,-0.523 -4.873,-1.326 -7.207,-2.416 -2.336,-1.088 -4.398,-2.596 -6.189,-4.525 -1.791,-1.929 -3.242,-4.346 -4.352,-7.25 -1.111,-2.902 -1.666,-6.464 -1.666,-10.685 z m 20.401,0 c 0,2.451 0.293,4.551 0.883,6.297 0.59,1.748 1.439,3.178 2.551,4.289 1.109,1.111 2.447,1.916 4.012,2.416 1.565,0.5 3.344,0.748 5.34,0.748 1.949,0 3.717,-0.248 5.303,-0.748 1.586,-0.5 2.936,-1.305 4.047,-2.416 1.109,-1.111 1.959,-2.541 2.549,-4.289 0.59,-1.746 0.885,-3.846 0.885,-6.297 0,-2.449 -0.295,-4.549 -0.885,-6.297 -0.59,-1.746 -1.439,-3.176 -2.549,-4.287 -1.111,-1.111 -2.461,-1.916 -4.047,-2.416 -1.586,-0.5 -3.354,-0.75 -5.303,-0.75 -1.996,0 -3.775,0.25 -5.34,0.75 -1.565,0.5 -2.902,1.305 -4.012,2.416 -1.111,1.111 -1.961,2.541 -2.551,4.287 -0.59,1.748 -0.883,3.848 -0.883,6.297 z"
       id="path3057"
       inkscape:connector-curvature="0"
       style="fill:#cc2036" /><path
       d="m 438.456,301.252 h 40.393 c 2.766,0 5.043,0.137 6.834,0.408 1.789,0.271 3.342,0.725 4.658,1.357 0.906,0.453 1.756,1.076 2.549,1.869 0.793,0.793 1.496,1.697 2.109,2.717 0.611,1.02 1.088,2.129 1.428,3.328 0.34,1.201 0.51,2.48 0.51,3.838 0,1.178 -0.125,2.332 -0.375,3.465 -0.25,1.133 -0.668,2.195 -1.258,3.191 -0.59,0.996 -1.359,1.881 -2.311,2.65 -0.953,0.77 -2.131,1.359 -3.537,1.766 v 0.135 c 1.449,0.408 2.686,1.213 3.705,2.412 1.02,1.201 1.621,2.889 1.803,5.061 l 0.816,10.598 c 0.09,1.086 0.352,2.117 0.781,3.09 0.43,0.975 0.963,1.846 1.6,2.615 h -20.945 c -0.182,-0.363 -0.318,-0.783 -0.408,-1.26 -0.09,-0.477 -0.17,-1.068 -0.238,-1.773 -0.068,-0.705 -0.125,-1.559 -0.17,-2.559 -0.045,-1 -0.113,-2.203 -0.203,-3.613 -0.09,-1.816 -0.498,-3.236 -1.225,-4.26 -0.727,-1.024 -1.973,-1.535 -3.738,-1.535 h -13.602 v 15 h -19.176 v -48.5 z m 19.176,21.25 h 13.602 c 1.902,0 3.262,-0.369 4.078,-1.107 0.816,-0.738 1.225,-1.869 1.225,-3.393 0,-1.836 -0.533,-3.045 -1.598,-3.627 -1.066,-0.582 -2.393,-0.873 -3.979,-0.873 h -13.328 v 9 z"
       id="path3059"
       inkscape:connector-curvature="0"
       style="fill:#cc2036" /></g></g></svg>