<svg width="64" xmlns="http://www.w3.org/2000/svg" height="64" viewBox="0 0 64 64" xmlns:xlink="http://www.w3.org/1999/xlink" enable-background="new 0 0 64 64">
<path fill="#727272" d="m49,31.074v-8.148h-6.519c-.392-1.55-1.034-2.74-1.84-4.074l4.662-4.662-5.451-5.452-4.658,4.657c-1.342-.808-2.56-1.33-4.12-1.714l.019-6.681h-8.187l.019,6.682c-1.561,.385-2.836,.891-4.175,1.7l-4.622-4.623-5.462,5.462 4.615,4.615c-.812,1.348-1.241,2.497-1.63,4.07h-6.651v8.187h6.651c.392,1.565 .824,2.901 1.644,4.248l-4.533,4.533 5.458,5.458 4.547-4.547c1.345,.81 2.597,1.311 4.159,1.696v6.519h8.148v-6.519c1.552-.395 2.833-.938 4.165-1.75l4.571,4.571 5.451-5.452-4.592-4.59c.801-1.337 1.428-2.635 1.812-4.187h6.519zm-21.985,5.705c-5.4,.006-9.785-4.366-9.792-9.764-.007-5.401 4.363-9.785 9.764-9.792 5.396-.008 9.784,4.363 9.792,9.762 .007,5.396-4.365,9.784-9.764,9.794z"/>
<path fill="#b3b3b3" d="m33.09,60l.02-6.456c-1.015-.296-1.905-.658-2.8-1.14l-4.508,4.508-6.624-6.624 4.497-4.497c-.485-.931-.813-1.862-1.097-2.884h-6.578v-9.814h6.58c.294-1.029 .628-1.87 1.08-2.717l-4.574-4.574 6.628-6.628 4.578,4.579c.917-.499 1.819-.875 2.801-1.168v-6.585h9.814v6.585c.941,.285 1.804,.654 2.75,1.178l4.611-4.609 6.617,6.618-4.607,4.608c.465,.811 .913,1.693 1.251,2.729l6.471-.019v9.82l-6.463-.02c-.289,.93-.683,1.828-1.238,2.83l4.547,4.546-6.617,6.618-4.533-4.533c-.896,.47-1.783,.786-2.788,1.068v6.581h-9.818zm4.898-30.333c-4.595,.006-8.328,3.75-8.322,8.346 .006,4.588 3.747,8.32 8.336,8.32 4.604-.008 8.337-3.752 8.33-8.347-.006-4.588-3.744-8.32-8.332-8.32v-1l-.012,1.001z"/>
<g fill="#fff">
<path d="m41.907,17v6.349c1.49,.367 2.635,.894 3.914,1.665l4.447-4.445 5.203,5.204-4.449,4.45c.769,1.273 1.382,2.41 1.756,3.889l6.222-.019v7.814l-6.222-.019c-.366,1.481-.966,2.721-1.729,3.997l4.383,4.381-5.203,5.204-4.364-4.364c-1.271,.777-2.476,1.168-3.957,1.545v6.349h-7.814l.019-6.222c-1.491-.368-2.686-.848-3.97-1.62l-4.34,4.34-5.21-5.21 4.327-4.326c-.782-1.286-1.195-2.561-1.569-4.055h-6.351v-7.814h6.349c.372-1.501 .782-2.599 1.557-3.885l-4.406-4.406 5.214-5.214 4.412,4.412c1.278-.771 2.477-1.284 3.967-1.652v-6.348h7.814m-3.904,30.333c.003,0 .007,0 .011,0 5.154-.009 9.327-4.197 9.319-9.349-.007-5.148-4.188-9.318-9.332-9.318-.005,0-.01,0-.015,0-5.154,.007-9.327,4.192-9.32,9.347 .008,5.149 4.188,9.32 9.337,9.32m5.904-32.333h-2-7.814-2v2 4.857c-.549,.193-1.081,.415-1.609,.671l-3.354-3.355-1.415-1.415-1.415,1.416-5.214,5.214-1.415,1.414 1.415,1.414 3.356,3.356c-.227,.485-.423,.981-.602,1.52h-4.84-2v2 7.814 2h2 4.831c.174,.55 .38,1.111 .635,1.679l-3.288,3.288-1.415,1.414 1.415,1.414 5.21,5.21 1.414,1.414 1.414-1.414 3.29-3.289c.519,.247 1.047,.462 1.602,.651l-.014,4.72-.007,2.007h2.006 7.814 2v-2-4.836c.542-.174 1.065-.368 1.584-.603l3.323,3.323 1.414,1.414 1.414-1.414 5.203-5.204 1.414-1.414-1.414-1.414-3.318-3.316c.284-.561 .522-1.103 .723-1.643l4.744,.014 2.006,.006v-2.006-7.814-2.006l-2.006,.006-4.762,.014c-.217-.556-.46-1.069-.715-1.551l3.368-3.369 1.414-1.414-1.414-1.414-5.203-5.204-1.414-1.414-1.414,1.414-3.384,3.383c-.525-.261-1.039-.482-1.563-.671v-4.867-2h0zm-5.904,32.333v-2c-4.04,0-7.331-3.285-7.336-7.322-.005-4.044 3.28-7.338 7.323-7.344 4.049,0 7.339,3.284 7.344,7.321 .006,4.044-3.279,7.339-7.322,7.346l-.009,1.999z"/>
<path d="m38.014,47.333c-5.154,.006-9.34-4.167-9.347-9.319-.007-5.155 4.166-9.34 9.32-9.347 5.151-.008 9.34,4.165 9.347,9.318 .007,5.151-4.166,9.339-9.32,9.348z"/>
</g>
</svg>
