<svg width="64" xmlns="http://www.w3.org/2000/svg" height="64" viewBox="0 0 64 64" xmlns:xlink="http://www.w3.org/1999/xlink" enable-background="new 0 0 64 64">
<g transform="translate(-.45231 -916.88338)">
<path fill="#0072c6" d="m24.452,921.883l18,6-14,14-4-20z"/>
<path fill="none" stroke="#0072c6" stroke-width="6" d="m30.064,931.021c0,0-26.611,2.363-18.611,27.863"/>
</g>
<g fill="#b3b3b3" stroke="#505050" stroke-width="2" transform="translate(-.45231 -916.88338)">
<path d="m16.172,963.008c-3.236-.671-6.423,1.416-7.094,4.655-.671,3.236 1.421,6.427 4.659,7.095 3.235,.67 6.418-1.425 7.09-4.657 .671-3.238-1.418-6.422-4.655-7.093zm-.256,1.234c2.57,.535 4.209,3.03 3.676,5.602-.534,2.567-3.031,4.215-5.601,3.681-2.568-.533-4.21-3.033-3.678-5.607 .531-2.57 3.033-4.207 5.603-3.676z"/>
<path d="m53.672,923.009c-3.232-.671-6.425,1.417-7.094,4.652-.675,3.237 1.423,6.426 4.662,7.097 3.233,.672 6.419-1.421 7.086-4.658 .672-3.236-1.414-6.42-4.654-7.091zm-.256,1.236c2.569,.534 4.209,3.03 3.676,5.6-.534,2.569-3.027,4.213-5.601,3.68-2.571-.533-4.213-3.034-3.677-5.604 .532-2.57 3.032-4.21 5.602-3.676z"/>
</g>
</svg>
