<svg width="64" xmlns="http://www.w3.org/2000/svg" height="64" viewBox="0 0 64 64" xmlns:xlink="http://www.w3.org/1999/xlink" enable-background="new 0 0 64 64">
<defs>
<clipPath id="SVGID_2_RFR">
<use xlink:href="#SVGID_1_RFR"/>
</clipPath>
<path id="SVGID_1_RFR" d="M16.381,51.41l12.057-14.116L38.802,31H60v10.499L31.937,61.165L16.381,51.41z M33.987,2.874L4,24.507V33    h26v0.947l17.317-20.11L33.987,2.874z"/>
</defs>
<g fill="#19478a">
<path d="M54,31.999C54,44.151,44.151,54,32,54s-22-9.849-22-22.001   C10,19.85,19.85,10,32,10S54,19.85,54,31.999z M32,17.652c-7.924,0-14.348,6.423-14.348,14.347c0,7.927,6.424,14.349,14.348,14.349   s14.348-6.422,14.348-14.349C46.349,24.075,39.925,17.652,32,17.652z" clip-path="url(#SVGID_2_RFR)"/>
<path d="M59,33 49.971,21 41,33z"/>
<path d="M23,31 13.972,43 5,31z"/>
</g>
</svg>
