<svg width="64" xmlns="http://www.w3.org/2000/svg" height="64" viewBox="0 0 64 64" xmlns:xlink="http://www.w3.org/1999/xlink" enable-background="new 0 0 64 64">
<g fill="#505050">
<path d="M20.333,32L27,38.67L8.667,57L2,50.335L20.333,32z"/>
<path d="m34,14c6.617,0 12,5.383 12,12s-5.383,12-12,12-12-5.383-12-12 5.383-12 12-12m0-6c-9.941,0-18,8.06-18,18 0,9.941 8.059,18 18,18 9.941,0 18-8.059 18-18 0-9.94-8.059-18-18-18z"/>
</g>
<path fill="#1f6d42" d="m36.913,24.178l24.862,15.813-24.847,15.831-.015-31.644z"/>
<path fill="#fff" d="m38.275,26l22,13.992-21.988,14.008-.012-28m-2.002-3.643l.002,3.644 .012,28 .002,3.644 3.072-1.957 21.989-14.008 2.65-1.689-2.651-1.687-22-13.993-3.076-1.954z"/>
</svg>
